HIERARCHY
ROOT Hips
{
	OFFSET -0.001795 -0.223333 0.028219
	CHANNELS 6 Xposition Yposition Zposition Zrotation Yrotation Xrotation 
	JOINT LeftUpLeg
	{
		OFFSET 0.069520 -0.091406 -0.006815
		CHANNELS 3 Zrotation Yrotation Xrotation
		JOINT LeftLeg
		{
			OFFSET 0.034277 -0.375199 -0.004496
			CHANNELS 3 Zrotation Yrotation Xrotation
			JOINT LeftFoot
			{
				OFFSET -0.013596 -0.397961 -0.043693
				CHANNELS 3 Zrotation Yrotation Xrotation
				JOINT LeftToe
				{
					OFFSET 0.026358 -0.055791 0.119288
					CHANNELS 3 Zrotation Yrotation Xrotation
					End Site
					{
						OFFSET 0.000000 0.000000 0.000000
					}
				}
			}
		}
	}
	JOINT RightUpLeg
	{
		OFFSET -0.067670 -0.090522 -0.004320
		CHANNELS 3 Zrotation Yrotation Xrotation
		JOINT RightLeg
		{
			OFFSET -0.038290 -0.382569 -0.008850
			CHANNELS 3 Zrotation Yrotation Xrotation
			JOINT RightFoot
			{
				OFFSET 0.015774 -0.398415 -0.042312
				CHANNELS 3 Zrotation Yrotation Xrotation
				JOINT RightToe
				{
					OFFSET -0.025372 -0.048144 0.123348
					CHANNELS 3 Zrotation Yrotation Xrotation
					End Site
					{
						OFFSET 0.000000 0.000000 0.000000
					}
				}
			}
		}
	}
	JOINT Spine
	{
		OFFSET -0.002533 0.108963 -0.026696
		CHANNELS 3 Zrotation Yrotation Xrotation
		JOINT Spine1
		{
			OFFSET 0.005487 0.135180 0.001092
			CHANNELS 3 Zrotation Yrotation Xrotation
			JOINT Spine2
			{
				OFFSET 0.001457 0.052922 0.025425
				CHANNELS 3 Zrotation Yrotation Xrotation
				JOINT Neck
				{
					OFFSET -0.002778 0.213870 -0.042857
					CHANNELS 3 Zrotation Yrotation Xrotation
					JOINT Head
					{
						OFFSET 0.005152 0.064970 0.051349
						CHANNELS 3 Zrotation Yrotation Xrotation
						End Site
						{
							OFFSET 0.000000 0.000000 0.000000
						}
					}
				}
				JOINT LeftShoulder
				{
					OFFSET 0.078845 0.121749 -0.034090
					CHANNELS 3 Zrotation Yrotation Xrotation
					JOINT LeftArm
					{
						OFFSET 0.090977 0.030469 -0.008868
						CHANNELS 3 Zrotation Yrotation Xrotation
						JOINT LeftForeArm
						{
							OFFSET 0.259612 -0.012772 -0.027456
							CHANNELS 3 Zrotation Yrotation Xrotation
							JOINT LeftHand
							{
								OFFSET 0.249234 0.008986 -0.001171
								CHANNELS 3 Zrotation Yrotation Xrotation
								End Site
								{
									OFFSET 0.000000 0.000000 0.000000
								}
							}
						}
					}
				}
				JOINT RightShoulder
				{
					OFFSET -0.081759 0.118833 -0.038615
					CHANNELS 3 Zrotation Yrotation Xrotation
					JOINT RightArm
					{
						OFFSET -0.096012 0.032551 -0.009143
						CHANNELS 3 Zrotation Yrotation Xrotation
						JOINT RightForeArm
						{
							OFFSET -0.253742 -0.013329 -0.021401
							CHANNELS 3 Zrotation Yrotation Xrotation
							JOINT RightHand
							{
								OFFSET -0.255298 0.007772 -0.005559
								CHANNELS 3 Zrotation Yrotation Xrotation
								End Site
								{
									OFFSET 0.000000 0.000000 0.000000
								}
							}
						}
					}
				}
			}
		}
	}
}
MOTION
Frames: 13
Frame Time: 0.050000
0.000000 0.960829 0.000000 0.967795 1.598552 0.061509 1.776669 0.317770 4.642431 -0.783474 0.245061 -6.047677 -1.009182 4.649289 16.336338 0.000000 0.000000 0.000000 -2.496827 -0.517740 7.057777 1.063914 -0.238818 -4.052682 -3.310290 -10.691287 9.939480 0.000000 0.000000 0.000000 -3.508778 0.042130 -1.955845 2.314562 -0.085243 -20.240701 0.087418 2.947395 23.607378 -2.388174 3.402036 -20.011967 0.000000 0.000000 0.000000 -10.059577 -12.555635 4.470827 -37.272179 -54.175505 10.679705 124.725574 -42.462466 -67.109727 0.000000 0.000000 0.000000 -2.355239 19.811231 6.469983 29.634819 48.127605 7.368888 -120.610378 33.978833 -45.354286 0.000000 0.000000 0.000000 
0.001163 0.959507 0.002126 0.686872 0.863531 0.618384 2.490928 0.280376 4.623583 -1.756108 0.311287 -6.673813 -0.616177 5.068457 16.136145 0.000000 0.000000 0.000000 -2.654447 -0.427817 6.262130 1.111447 -0.207693 -2.966157 -2.419578 -8.612569 8.333815 0.000000 0.000000 0.000000 -3.711371 0.058877 -3.240395 2.949350 -0.305045 -19.731471 0.169987 2.850105 24.075672 -3.152112 3.818286 -20.541808 0.000000 0.000000 0.000000 -11.062989 -12.690847 4.653218 -38.665428 -55.630126 11.898687 125.711896 -42.596915 -67.843586 0.000000 0.000000 0.000000 -1.493386 20.601274 6.887712 32.504939 48.540768 8.449196 -123.832817 33.066084 -46.533361 0.000000 0.000000 0.000000 
0.002444 0.957703 0.003822 0.884766 -0.913139 0.090927 2.561922 0.344793 5.262277 -2.702205 0.367569 -6.180321 0.313650 6.105317 15.705598 0.000000 0.000000 0.000000 -3.539581 -0.370745 6.832205 1.853210 -0.274136 -3.533663 -2.002257 -7.898932 8.275685 0.000000 0.000000 0.000000 -2.927748 0.067360 -2.716420 2.400071 -0.177447 -20.061375 0.345587 3.956802 25.158657 -2.336741 3.342022 -20.924908 0.000000 0.000000 0.000000 -10.479208 -12.783211 4.723449 -38.427034 -55.347824 11.568893 126.687466 -42.608217 -68.742266 0.000000 0.000000 0.000000 -0.747675 20.218896 6.874212 36.387928 47.470295 9.465207 -127.638862 35.017866 -52.793092 0.000000 0.000000 0.000000 
0.003362 0.956988 0.005474 0.792232 -0.269453 0.042364 2.516359 0.382483 5.868807 -2.431188 0.359095 -7.083046 -0.014797 5.654842 15.562101 0.000000 0.000000 0.000000 -3.147729 -0.443410 7.212031 2.032156 -0.285353 -3.301273 -2.910502 -9.455026 7.312720 0.000000 0.000000 0.000000 -3.332083 0.064647 -3.246531 3.344132 -0.466227 -19.370059 -0.211517 3.112357 25.285061 -1.858062 2.926161 -19.756163 0.000000 0.000000 0.000000 -11.065226 -12.004233 4.458504 -40.034483 -53.840495 11.723435 128.853883 -43.633121 -72.354648 0.000000 0.000000 0.000000 0.641944 19.455732 6.862017 39.593946 46.530811 10.192922 -129.159452 36.282729 -56.335482 0.000000 0.000000 0.000000 
0.004213 0.956687 0.006950 0.783175 -0.332732 -0.272760 2.293039 0.449265 6.562628 -2.118378 0.351152 -7.505244 0.004950 5.662668 15.508822 0.000000 0.000000 0.000000 -3.280888 -0.472261 7.772488 1.791565 -0.278034 -3.774803 -2.513401 -8.773033 7.819080 0.000000 0.000000 0.000000 -3.229775 0.059619 -2.918772 3.634528 -0.604259 -18.508363 -0.461736 2.625572 24.721423 -1.497162 2.597944 -19.498857 0.000000 0.000000 0.000000 -11.314814 -11.433189 4.277985 -40.276512 -51.367432 10.931467 131.897305 -45.448666 -78.428782 0.000000 0.000000 0.000000 2.193832 18.143818 6.633157 41.904250 44.271873 10.024202 -130.730834 38.237779 -61.436285 0.000000 0.000000 0.000000 
0.004953 0.956709 0.007980 0.630278 -0.283062 -0.340227 2.222010 0.469016 6.775686 -1.771048 0.337961 -7.641462 0.001270 5.648364 15.445548 0.000000 0.000000 0.000000 -3.179402 -0.506563 8.094518 1.687219 -0.274002 -3.905076 -2.313144 -8.321658 7.687489 0.000000 0.000000 0.000000 -3.472130 0.053456 -2.823283 3.870764 -0.645880 -18.950782 -0.171525 1.914231 25.364920 -1.708337 2.612389 -19.133845 0.000000 0.000000 0.000000 -11.191125 -10.591310 4.024238 -41.030715 -49.628609 10.514876 134.710710 -46.919223 -83.533248 0.000000 0.000000 0.000000 2.481422 17.492675 6.396172 42.730405 42.521627 9.446922 -130.706979 39.005308 -63.016058 0.000000 0.000000 0.000000 
0.005578 0.956678 0.008581 0.606978 -0.495754 -0.330259 2.206028 0.489422 6.997550 -1.808914 0.346596 -7.934745 0.081134 5.761476 15.515952 0.000000 0.000000 0.000000 -3.335302 -0.468876 7.828507 1.487435 -0.257422 -3.844180 -1.871840 -7.624229 8.361532 0.000000 0.000000 0.000000 -3.375492 0.052715 -2.525146 4.209031 -0.749772 -18.937319 -0.321901 1.711786 25.369494 -1.271886 2.290236 -19.466169 0.000000 0.000000 0.000000 -11.135741 -10.272826 3.934185 -39.679854 -48.219230 9.471869 137.323219 -47.152702 -87.282512 0.000000 0.000000 0.000000 3.012424 16.859623 6.218758 42.403729 41.457272 8.837494 -132.240401 38.846916 -64.756929 0.000000 0.000000 0.000000 
0.006082 0.956708 0.008813 0.492027 -0.865277 -0.133702 2.076055 0.480362 6.701970 -1.496599 0.330690 -7.693503 0.328052 6.066407 15.440341 0.000000 0.000000 0.000000 -3.456018 -0.409567 7.246699 1.688656 -0.261569 -3.493589 -1.672769 -7.340389 8.667679 0.000000 0.000000 0.000000 -3.266147 0.060070 -2.691239 4.373134 -0.809786 -18.868247 -0.194773 1.451630 25.609777 -1.143772 2.131451 -19.474681 0.000000 0.000000 0.000000 -11.125654 -10.069909 3.931855 -38.116202 -48.599646 9.048894 137.130232 -46.964195 -86.552130 0.000000 0.000000 0.000000 2.376280 16.760804 6.067584 40.657065 41.592975 8.275699 -131.508447 37.854397 -62.792477 0.000000 0.000000 0.000000 
0.006468 0.956873 0.008746 0.443094 -1.001944 -0.016176 2.181954 0.472083 6.674481 -1.663448 0.341864 -7.849298 0.373025 6.141414 15.537272 0.000000 0.000000 0.000000 -3.501409 -0.381439 6.934929 1.570116 -0.249148 -3.361453 -1.385903 -6.867649 8.973773 0.000000 0.000000 0.000000 -3.400198 0.057108 -2.459623 4.794067 -0.926420 -18.969341 -0.368423 1.257596 25.714683 -1.096006 2.054348 -19.419798 0.000000 0.000000 0.000000 -10.321761 -10.705012 4.230135 -35.067208 -50.128177 8.476561 134.994733 -46.201827 -82.711108 0.000000 0.000000 0.000000 1.653578 17.182904 6.109096 37.494780 42.050113 7.444370 -129.600555 37.060728 -59.916553 0.000000 0.000000 0.000000 
0.006708 0.957121 0.008662 0.404669 -1.093537 0.189378 2.254501 0.444785 6.373995 -1.769892 0.344196 -7.710685 0.424458 6.218260 15.582836 0.000000 0.000000 0.000000 -3.688436 -0.341720 6.623310 1.431347 -0.240630 -3.443808 -0.753766 -5.783700 9.523592 0.000000 0.000000 0.000000 -3.553136 0.061162 -2.765065 5.089197 -1.039937 -18.594725 -0.470093 1.060061 25.665434 -0.764016 1.785244 -19.146040 0.000000 0.000000 0.000000 -9.147041 -11.258175 4.445242 -32.058013 -52.336423 8.055022 131.957042 -44.908823 -77.119245 0.000000 0.000000 0.000000 0.913255 17.730625 6.190750 34.452368 41.940794 6.490307 -127.740392 35.696863 -56.309914 0.000000 0.000000 0.000000 
0.006657 0.957297 0.008637 0.322589 -1.294366 0.414299 2.389926 0.427728 6.247385 -1.890213 0.353984 -7.880258 0.507250 6.348434 15.706213 0.000000 0.000000 0.000000 -3.580378 -0.335144 6.462799 1.339951 -0.238149 -3.630622 -0.626171 -5.572929 9.598468 0.000000 0.000000 0.000000 -3.756651 0.063977 -2.969724 5.428713 -1.142000 -18.609221 -0.425556 0.853418 25.860109 -0.876650 1.800917 -18.977633 0.000000 0.000000 0.000000 -8.103445 -11.749286 4.636449 -28.979745 -54.309792 7.390639 129.930707 -43.866785 -73.204110 0.000000 0.000000 0.000000 0.189839 17.650880 6.054438 32.367167 42.251618 5.916101 -126.009430 35.157292 -54.168783 0.000000 0.000000 0.000000 
0.006351 0.957342 0.008635 0.314824 -1.403062 0.637242 2.488081 0.399036 5.938400 -2.040639 0.359018 -7.745692 0.570093 6.434110 15.728346 0.000000 0.000000 0.000000 -3.599300 -0.319497 6.302109 1.265626 -0.239039 -3.870418 -0.407832 -5.218493 9.803579 0.000000 0.000000 0.000000 -4.157998 0.064726 -3.557276 5.780146 -1.274790 -18.227463 -0.634384 0.561430 26.003065 -0.509367 1.492099 -18.778229 0.000000 0.000000 0.000000 -6.949142 -11.583077 4.529760 -27.623153 -56.264804 7.374995 127.961463 -43.606575 -70.413094 0.000000 0.000000 0.000000 -0.166846 17.599743 5.980989 31.618842 41.870631 5.552406 -125.036215 34.600846 -52.706215 0.000000 0.000000 0.000000 
0.005808 0.957230 0.008395 0.333827 -1.545359 0.857540 2.546315 0.377872 5.689605 -2.151787 0.364691 -7.730674 0.648589 6.539054 15.755747 0.000000 0.000000 0.000000 -3.557179 -0.309504 6.158603 1.148559 -0.240862 -4.236278 -0.306856 -5.123811 10.063121 0.000000 0.000000 0.000000 -4.471975 0.063431 -3.768663 6.066492 -1.347439 -18.383650 -0.570072 0.457775 26.298211 -0.572184 1.502584 -18.777574 0.000000 0.000000 0.000000 -6.762400 -11.390542 4.463273 -27.208598 -57.807656 7.597074 127.445535 -44.156584 -70.472432 0.000000 0.000000 0.000000 -0.013711 17.072000 5.817941 32.207459 41.739301 5.634258 -125.119971 35.566905 -54.336026 0.000000 0.000000 0.000000 
